<?xml version="1.0" encoding="utf-8"?>
<!-- Generator: Adobe Illustrator 16.0.3, SVG Export Plug-In . SVG Version: 6.00 Build 0)  -->
<!DOCTYPE svg PUBLIC "-//W3C//DTD SVG 1.1//EN" "http://www.w3.org/Graphics/SVG/1.1/DTD/svg11.dtd">
<svg version="1.1" id="Layer_1" xmlns="http://www.w3.org/2000/svg" xmlns:xlink="http://www.w3.org/1999/xlink" x="0px" y="0px"
	 viewBox="96.501 0 300 150" enable-background="new 96.501 0 300 150" xml:space="preserve">
<polygon fill="#FFFFFF" points="263.011,125.269 208.007,147.876 208.007,36.483 263.011,13.876 "/>
<polygon fill="#FFFFFF" points="380.003,125.269 324.987,147.876 324.987,36.483 380.003,13.876 "/>
<polygon fill="#FFFFFF" points="265.999,125.269 322.005,147.876 322.005,36.483 265.999,13.876 "/>
<path fill="#FFFFFF" d="M111.02,148.876V68.933l20.062-20.057h56.935v100H111.02L111.02,148.876z M111.02,69.88h20.985V48.888
	h-0.994v19.997H111.02V69.88z M119.021,138.887h59.988v-3.007h-59.988V138.887z M119.021,126.884h59.988v-3.007h-59.988V126.884z
	 M119.021,114.881h59.988v-2.982h-59.988V114.881z M119.021,102.879h59.988v-3.006h-59.988V102.879z M119.021,90.877h59.988v-2.982
	h-59.988V90.877z M119.021,78.886h59.988V75.88h-59.988V78.886z M139.025,66.884h39.984v-2.988h-39.984V66.884z"/>
</svg>
