<?xml version="1.0" encoding="utf-8"?>
<!-- Generator: Adobe Illustrator 16.0.1, SVG Export Plug-In . SVG Version: 6.00 Build 0)  -->
<!DOCTYPE svg PUBLIC "-//W3C//DTD SVG 1.1//EN" "http://www.w3.org/Graphics/SVG/1.1/DTD/svg11.dtd">
<svg version="1.1" id="Layer_1" xmlns="http://www.w3.org/2000/svg" xmlns:xlink="http://www.w3.org/1999/xlink" x="0px" y="0px"
	 viewBox="0 0 400 150" enable-background="new 0 0 400 150" xml:space="preserve">
<path fill="#FFFFFF" d="M66,140.657c0,2.551-1.534,4.343-4.369,4.343H20.568c-2.834,0-5.568-1.792-5.568-4.343V66.744
	C15,64.192,17.734,63,20.568,63h41.063C64.466,63,66,64.192,66,66.744V140.657z M61,73H20v60h41V73z M41.351,135.439
	c-1.988,0-3.6,1.611-3.6,3.601c0,1.988,1.612,3.6,3.6,3.6c1.988,0,3.6-1.611,3.6-3.6C44.951,137.051,43.339,135.439,41.351,135.439z
	"/>
<path fill="#FFFFFF" d="M214,137.5c0,4.694-3.806,8.5-8.5,8.5h-111c-4.694,0-8.5-3.806-8.5-8.5v-78c0-4.694,3.806-8.5,8.5-8.5h111
	c4.694,0,8.5,3.806,8.5,8.5V137.5z M204,137V61H102v76H204z M99.793,99.78c0-2.817-2.283-5.1-5.1-5.1c-2.817,0-5.1,2.282-5.1,5.1
	s2.283,5.1,5.1,5.1C97.511,104.88,99.793,102.598,99.793,99.78z"/>
<path fill="#FFFFFF" d="M374,12H244c-5.52,0-10,4.48-10,10v92c0,5.52,4.48,10,10,10h36.93c-3.439,2.29-6.93,5.7-6.93,9.5l0,0
	c0,6.9,1.49,12.5,3.33,12.5h63.34c1.84,0,3.33-5.6,3.33-12.5l0,0c0-3.8-3.49-7.21-6.93-9.5H374c5.52,0,10-4.48,10-10V22
	C384,16.48,379.52,12,374,12z M374,113H244V23h130V113z"/>
</svg>
