<?xml version="1.0" encoding="utf-8"?>
<!-- Generator: Adobe Illustrator 16.0.1, SVG Export Plug-In . SVG Version: 6.00 Build 0)  -->
<!DOCTYPE svg PUBLIC "-//W3C//DTD SVG 1.1//EN" "http://www.w3.org/Graphics/SVG/1.1/DTD/svg11.dtd">
<svg version="1.1" id="Layer_1" xmlns="http://www.w3.org/2000/svg" xmlns:xlink="http://www.w3.org/1999/xlink" x="0px" y="0px"
	 viewBox="0 0 200 200" enable-background="new 0 0 200 200" xml:space="preserve">
<g>
	<path fill="#FFFFFF" d="M88.805,50.942c14.176,0,25.668,13.757,25.668,30.73c0,16.97-11.491,30.731-25.668,30.731
		c-14.175,0-25.668-13.761-25.668-30.731C63.137,64.699,74.63,50.942,88.805,50.942z"/>
	<path fill="#FFFFFF" d="M129.31,153.85c0,0,7.3-0.236,7.3-7.536l-3.532-7.536c0,0-4.71-14.6-11.539-22.371
		c-6.829-7.771-14.836,0-14.836,0s-3.532,7.301-15.307,7.536h-4.003c-11.774-0.235-15.307-7.536-15.307-7.536s-8.006-7.771-14.836,0
		c-6.829,7.771-11.539,22.371-11.539,22.371l-3.532,7.536c0,7.3,7.3,7.536,7.3,7.536H129.31z"/>
	<path fill="#FFFFFF" d="M135.314,120.881c0,0,6.476-6.828,13.305,0c4.003,9.185,7.064,17.897,7.064,17.897l3.532,7.536
		c0,7.3-7.183,7.535-7.183,7.535h-13.507c0,0,7.503-1.883,5.618-7.771C145.793,145.255,135.314,120.881,135.314,120.881z"/>
	<path fill="#FFFFFF" d="M124.762,63.459c11.127,0,20.146,10.799,20.146,24.119c0,13.319-5.722,21.763-17.32,23.412
		c-9.418,0-12.252-5.942-13.688-6.045c9.138-5.958,7.337-41.357,3.43-39.831C117.885,64.346,122.575,63.459,124.762,63.459z"/>
</g>
</svg>
