<?xml version="1.0" encoding="utf-8"?>
<!-- Generator: Adobe Illustrator 16.0.4, SVG Export Plug-In . SVG Version: 6.00 Build 0)  -->
<!DOCTYPE svg PUBLIC "-//W3C//DTD SVG 1.1//EN" "http://www.w3.org/Graphics/SVG/1.1/DTD/svg11.dtd">
<svg version="1.1" xmlns="http://www.w3.org/2000/svg" xmlns:xlink="http://www.w3.org/1999/xlink" x="0px" y="0px" viewBox="0 0 400 200" enable-background="new 0 0 400 200" xml:space="preserve">
<g id="Layer_2" display="none">
	<rect display="inline" width="400" height="200"/>
</g>
<g id="Layer_1">
	<g id="_x31_Jvihe_1_">
		<g>
			<path fill-rule="evenodd" clip-rule="evenodd" fill="#FFFFFF" d="M262.13,20.489c-6.521,2.188-13.069,4.297-19.549,6.604
				c-2.748,0.979-5.376,2.317-7.991,3.628c-0.462,0.231-0.97,1.27-0.813,1.701c4.069,11.114,8.223,22.196,12.371,33.28
				c0.062,0.167,0.249,0.287,0.413,0.467c3.054-1.583,6.043-3.278,9.15-4.716c13.024-6.028,26.608-9.849,41.08-9.489
				c4.061,0.101,8.204,0.676,12.13,1.713c9.88,2.611,14.646,9.104,14.904,19.576c0.041,1.614,0.006,3.23,0.006,4.964
				c-3.215,0.154-6.26,0.218-9.289,0.46c-9.405,0.752-18.848,1.241-28.195,2.444c-13.215,1.7-26.131,4.728-37.829,11.514
				c-11.997,6.959-19.897,16.994-21.796,30.946c-2.206,16.229,0.627,31.206,12.803,43.216c7.276,7.178,16.349,10.952,26.232,12.973
				c1.141,0.234,2.276,0.48,3.414,0.721c-8.085,0-16.169,0-24.254,0c-0.342-0.153-0.669-0.365-1.027-0.451
				c-10.886-2.61-18.438-9.11-22.635-19.472c-0.722-1.782-1.184-3.668-1.766-5.505c0-36.382,0-72.763,0-109.145
				c0.154-0.345,0.369-0.675,0.452-1.036c2.326-9.998,8.113-17.259,17.362-21.663c2.422-1.153,5.069-1.833,7.613-2.729
				C250.654,20.489,256.393,20.489,262.13,20.489z"/>
			<path fill-rule="evenodd" clip-rule="evenodd" fill="#FFFFFF" d="M379.489,155.062c-0.67,2.073-1.34,4.146-2.01,6.22
				c-0.204-0.005-0.41-0.012-0.614-0.018c-0.403-3.777-1.124-7.553-1.158-11.333c-0.222-24.245-0.273-48.491-0.425-72.737
				c-0.063-10.056-1.533-19.873-5.922-29.031c-6.352-13.256-17.088-21.546-30.628-26.563c-0.901-0.334-1.778-0.738-2.667-1.11
				c5.999,0,11.997,0,17.996,0c0.403,0.162,0.796,0.372,1.214,0.478c11.694,2.976,19.439,10.178,23.197,21.652
				c0.358,1.093,0.679,2.198,1.017,3.298C379.489,82.298,379.489,118.68,379.489,155.062z"/>
			<path fill-rule="evenodd" clip-rule="evenodd" fill="#FFFFFF" d="M289.905,180.489c4.601-1.311,9.322-2.304,13.776-4.001
				c8.343-3.179,15.212-8.643,21.415-15.04c0.641,3.477,1.154,6.895,1.915,10.256c1.308,5.775,1.373,5.762,7.206,5.762
				c9.109,0,18.219,0,27.328,0c0.049,0.151,0.098,0.304,0.148,0.456c-2.545,0.855-5.089,1.711-7.633,2.567
				C332.675,180.489,311.29,180.489,289.905,180.489z"/>
			<path fill-rule="evenodd" clip-rule="evenodd" fill="#FFFFFF" d="M323.833,106.797c0,3.061,0,6.046,0,9.032
				c0,4.303,0.024,8.606-0.021,12.908c-0.009,0.817-0.136,1.708-0.481,2.436c-5.628,11.842-20.814,18.44-33.199,14.412
				c-6.765-2.199-10.746-6.874-11.86-13.899c-1.222-7.701,1.159-13.868,7.959-18.046c5.271-3.239,11.145-4.699,17.189-5.352
				c6.34-0.685,12.719-1.011,19.082-1.488C322.878,106.772,323.261,106.797,323.833,106.797z"/>
		</g>
	</g>
	<g id="Rers5Z_1_">
		<g>
			<path fill-rule="evenodd" clip-rule="evenodd" fill="#FFFFFF" d="M99.696,179.538c-44.503-0.01-79.768-35.712-79.747-80.739
				c0.02-43.734,36.125-78.862,81.044-78.85c43.347,0.012,78.585,36.232,78.547,80.736
				C179.501,143.994,143.502,179.546,99.696,179.538z M73.196,83.139c0.671-3.988,1.065-7.388,1.85-10.694
				c0.771-3.244,3.939-5.166,6.876-4.552c2.662,0.556,3.555,2.247,3.249,6.158c-0.047,0.603-0.262,1.256-0.1,1.795
				c0.213,0.708,0.703,1.882,1.108,1.896c3.182,0.112,6.38,0.099,9.553-0.146c0.574-0.045,1.285-1.254,1.537-2.05
				c2.489-7.879-1.918-15.952-9.918-18.301c-10.86-3.189-22.528,4.574-24.566,16.373c-0.528,3.057-0.956,6.132-1.479,9.523
				c-1.708,0-3.304-0.008-4.899,0.001c-7.304,0.042-7.303,0.043-8.532,7.151c-0.017,0.099-0.049,0.196-0.064,0.295
				c-0.433,2.792,0.257,3.628,3.21,3.687c2.804,0.055,5.609,0.011,8.56,0.011c-0.18,1.392-0.299,2.475-0.461,3.552
				c-0.613,4.081-1.168,8.172-1.882,12.235c-0.586,3.33-3.918,5.678-7.092,5.188c-2.948-0.458-3.982-2.363-3.527-6.528
				c0.044-0.399,0.353-0.925,0.194-1.163c-0.586-0.881-1.228-2.257-2.01-2.373c-2.168-0.327-4.462-0.373-6.613,0.005
				c-0.987,0.173-2.269,1.464-2.535,2.479c-1.462,5.577-0.194,10.648,3.869,14.763c3.959,4.007,8.893,4.911,14.237,3.498
				c8.785-2.323,14.51-9.058,15.769-18.248c0.608-4.445,1.37-8.871,2.047-13.208c3.861,0,7.345,0,10.973,0
				c-1.194,7.98-2.201,15.768-3.555,23.494c-1.586,9.049-0.838,7.674,7.163,7.807c2.38,0.037,3.719-0.902,4.088-3.406
				c1.523-10.357,3.241-20.687,4.708-31.05c0.873-6.167-1.142-8.212-7.482-8.192C82.854,83.151,78.235,83.139,73.196,83.139z
				 M128.566,91.708c-0.922,1.319-1.907,2.6-2.756,3.965c-5.702,9.165-4.36,20.365,3.346,26.573
				c11.667,9.399,29.957,2.357,35.157-12.215c0.63-1.768-0.545-2.736-2.176-2.823c-3.97-0.214-8.167-1.015-10.473,3.724
				c-0.451,0.926-1.495,1.657-2.416,2.241c-3.649,2.31-7.501,3.005-11.396,0.686c-3.423-2.038-4.489-5.311-4.075-9.101
				c0.586-5.38,5.518-10.058,10.973-10.4c2.312-0.145,4.638-0.057,6.957-0.078c3.518-0.032,4.404-0.806,4.936-4.29
				c0.137-0.896,0.28-1.791,0.434-2.684c0.59-3.428,0.021-4.149-3.55-4.157c-10.691-0.027-21.382-0.009-32.073-0.008
				c-1.092,0-2.184,0-3.681,0c0.443-3.003,0.794-5.669,1.236-8.321c1.316-7.904,1.331-7.902-6.651-7.799
				c-3.472,0.044-4.324,0.86-4.822,4.376c-0.548,3.863-1.178,7.715-1.758,11.476c-7.699,0.906-7.699,0.906-8.475,6.421
				c-0.652,4.643-0.433,4.889,4.379,5.011c0.682,0.018,1.362,0.11,2.379,0.196c-1.201,7.918-2.28,15.67-3.572,23.388
				c-1.345,8.027-1.35,8.043,6.871,7.926c2.714-0.037,4.128-1.153,4.507-3.781c0.618-4.289,1.258-8.574,1.91-12.857
				c0.751-4.933,1.526-9.861,2.323-15.003C120.958,94.042,125.833,94.5,128.566,91.708z"/>
		</g>
	</g>
</g>
</svg>
