<?xml version="1.0" encoding="utf-8"?>
<!-- Generator: Adobe Illustrator 16.0.1, SVG Export Plug-In . SVG Version: 6.00 Build 0)  -->
<!DOCTYPE svg PUBLIC "-//W3C//DTD SVG 1.1//EN" "http://www.w3.org/Graphics/SVG/1.1/DTD/svg11.dtd">
<svg version="1.1" id="Layer_1" xmlns="http://www.w3.org/2000/svg" xmlns:xlink="http://www.w3.org/1999/xlink" x="0px" y="0px"
	 viewBox="0 0 200 200" enable-background="new 0 0 200 200" xml:space="preserve">
<path id="Behance" fill="#FFFFFF" d="M147.241,69.125h-29.366V61.83h29.368v7.294H147.241z M98.325,99.036
	c1.895,2.935,2.843,6.499,2.843,10.683c0,4.325-1.069,8.207-3.241,11.636c-1.381,2.269-3.098,4.185-5.159,5.728
	c-2.322,1.785-5.07,3.008-8.229,3.661c-3.17,0.655-6.601,0.986-10.296,0.986H41.4V58.805h35.218
	c8.877,0.145,15.17,2.716,18.888,7.767c2.23,3.098,3.334,6.815,3.334,11.136c0,4.458-1.118,8.026-3.37,10.736
	c-1.251,1.521-3.102,2.902-5.552,4.149C93.629,93.952,96.444,96.091,98.325,99.036z M58.219,87.555H73.65
	c3.171,0,5.735-0.603,7.709-1.808c1.973-1.203,2.958-3.341,2.958-6.412c0-3.393-1.304-5.644-3.917-6.728
	c-2.247-0.752-5.121-1.141-8.608-1.141H58.219V87.555z M85.802,108.677c0-3.788-1.548-6.407-4.638-7.812
	c-1.729-0.798-4.166-1.207-7.293-1.236H58.219v19.434h15.41c3.166,0,5.617-0.414,7.385-1.278
	C84.203,116.193,85.802,113.168,85.802,108.677z M158.137,96.813c0.354,2.386,0.516,5.847,0.45,10.372h-38.032
	c0.21,5.249,2.022,8.921,5.459,11.021c2.073,1.317,4.586,1.961,7.528,1.961c3.104,0,5.633-0.784,7.579-2.397
	c1.061-0.854,1.997-2.061,2.806-3.584h13.94c-0.364,3.102-2.044,6.246-5.06,9.442c-4.674,5.078-11.228,7.626-19.646,7.626
	c-6.953,0-13.081-2.147-18.4-6.429c-5.302-4.296-7.965-11.263-7.965-20.926c0-9.062,2.392-15.997,7.188-20.826
	c4.815-4.837,11.028-7.244,18.688-7.244c4.541,0,8.633,0.811,12.284,2.443c3.64,1.633,6.646,4.204,9.016,7.735
	C156.115,89.119,157.493,92.716,158.137,96.813z M144.416,98.174c-0.256-3.63-1.469-6.377-3.65-8.255
	c-2.165-1.883-4.868-2.828-8.095-2.828c-3.511,0-6.223,1.01-8.148,2.996c-1.939,1.982-3.146,4.676-3.641,8.087H144.416z"/>
</svg>
