<?xml version="1.0" encoding="utf-8"?>
<!-- Generator: Adobe Illustrator 16.0.1, SVG Export Plug-In . SVG Version: 6.00 Build 0)  -->
<!DOCTYPE svg PUBLIC "-//W3C//DTD SVG 1.1//EN" "http://www.w3.org/Graphics/SVG/1.1/DTD/svg11.dtd">
<svg version="1.1" id="Layer_3" xmlns="http://www.w3.org/2000/svg" xmlns:xlink="http://www.w3.org/1999/xlink" x="0px" y="0px"
	 viewBox="0 0 200 200" enable-background="new 0 0 200 200" xml:space="preserve">
<path fill="none" stroke="#FFFFFF" stroke-width="18" stroke-linecap="round" stroke-miterlimit="10" d="M75.172,45.359
	c43.776,0,79.591,35.021,79.591,79.592"/>
<path fill="none" stroke="#FFFFFF" stroke-width="18" stroke-linecap="round" stroke-miterlimit="10" d="M75.677,73.186
	c28.559,0,51.922,22.847,51.922,51.924"/>
<path fill="#FFFFFF" d="M83.673,141.264c0-7.355-4.663-7.598-4.663-7.598s-0.008-3.662-4.201-7.855
	c-3.866-3.865-7.642-4.011-7.642-4.011s-0.29-4.688-7.646-4.688l19.119-19.12c13.283,0,24.15,10.63,24.15,24.152L83.673,141.264z"/>
<path fill="#FFFFFF" d="M79.346,145.591c0-7.355-4.663-7.599-4.663-7.599s-0.008-3.662-4.2-7.854
	c-3.866-3.864-7.642-4.013-7.642-4.013s-0.29-4.686-7.646-4.686l-5.48,17.876c4.724,1.082,10.079,6.545,11.644,11.365
	L79.346,145.591z"/>
<path fill="#FFFFFF" d="M48.848,142.279c3.561,1.248,7.851,5.186,9.381,9.184l0,0l-13.544,3.877L48.848,142.279z"/>
</svg>
