<?xml version="1.0" encoding="utf-8"?>
<!-- Generator: Adobe Illustrator 16.0.3, SVG Export Plug-In . SVG Version: 6.00 Build 0)  -->
<!DOCTYPE svg PUBLIC "-//W3C//DTD SVG 1.1//EN" "http://www.w3.org/Graphics/SVG/1.1/DTD/svg11.dtd">
<svg version="1.1" id="Layer_1" xmlns="http://www.w3.org/2000/svg" xmlns:xlink="http://www.w3.org/1999/xlink" x="0px" y="0px"
	 viewBox="0 0 116 116" enable-background="new 0 0 116 116" xml:space="preserve">
<g id="ball">
	<g>
		<path fill="#FFFFFF" d="M58.021,23.939C39.261,23.939,24,39.201,24,57.96S39.261,91.98,58.021,91.98
			c18.759,0,34.021-15.262,34.021-34.021S76.779,23.939,58.021,23.939z M80.514,39.628c4.047,4.945,6.498,11.243,6.562,18.103
			c-0.957-0.203-10.565-2.151-20.233-0.936c-0.204-0.498-0.412-0.997-0.626-1.499c-0.604-1.418-1.252-2.826-1.929-4.21
			C75.031,46.7,79.901,40.457,80.514,39.628z M58.021,28.946c7.384,0,14.132,2.77,19.263,7.323
			c-0.522,0.744-4.896,6.624-15.229,10.496c-4.762-8.748-10.04-15.936-10.843-17.011C53.396,29.227,55.676,28.946,58.021,28.946z
			 M45.666,31.707c0.766,1.05,5.959,8.247,10.774,16.806c-13.593,3.609-25.564,3.558-26.864,3.54
			C31.46,43.036,37.537,35.541,45.666,31.707z M28.961,58.004c0-0.296,0.006-0.592,0.015-0.888
			c1.271,0.026,15.353,0.208,29.864-4.135c0.832,1.628,1.626,3.28,2.356,4.931c-0.385,0.108-0.767,0.224-1.146,0.346
			c-14.987,4.845-22.961,18.05-23.62,19.177C31.791,72.282,28.961,65.469,28.961,58.004z M58.021,87.062
			c-6.718,0-12.91-2.291-17.836-6.133c0.522-1.07,6.407-12.437,22.796-18.147c0.064-0.021,0.128-0.042,0.191-0.064
			c4.08,10.602,5.767,19.487,6.199,22.036C65.882,86.24,62.046,87.062,58.021,87.062z M74.257,82.094
			c-0.299-1.769-1.846-10.274-5.646-20.719c9.106-1.458,17.105,0.929,18.101,1.243C85.417,70.702,80.775,77.686,74.257,82.094z"/>
	</g>
</g>
</svg>
