<?xml version="1.0" encoding="utf-8"?>
<!-- Generator: Adobe Illustrator 16.0.1, SVG Export Plug-In . SVG Version: 6.00 Build 0)  -->
<!DOCTYPE svg PUBLIC "-//W3C//DTD SVG 1.1//EN" "http://www.w3.org/Graphics/SVG/1.1/DTD/svg11.dtd">
<svg version="1.1" id="Layer_1" xmlns="http://www.w3.org/2000/svg" xmlns:xlink="http://www.w3.org/1999/xlink" x="0px" y="0px"
	 viewBox="0 0 200 200" enable-background="new 0 0 200 200" xml:space="preserve">
<path fill="#FFFFFF" d="M160.355,99.014c0,10.097-1.431,18.392-4.32,24.912c-2.875,6.52-6.957,11.647-12.243,15.371
	c-5.274,3.725-11.608,6.321-18.962,7.785c-7.354,1.483-15.504,2.2-24.422,2.2c-8.958,0-17.147-0.717-24.554-2.2
	c-7.408-1.464-13.729-4.061-18.962-7.785c-5.248-3.724-9.302-8.852-12.191-15.371c-2.875-6.52-4.32-14.814-4.32-24.912
	c0-4.969,0.795-9.792,2.412-14.443c1.589-4.665,4.041-8.852,7.341-12.575l-0.199-0.265l0.199-0.119
	c-0.689-1.696-1.166-3.445-1.405-5.274c-0.239-1.815-0.345-3.657-0.345-5.512c0-1.087,0.027-2.306,0.12-3.671
	c0.092-1.364,0.251-2.782,0.517-4.253s0.596-2.849,1.007-4.134c0.423-1.272,0.927-2.359,1.537-3.273h0.503
	c2.65,0,5.036,0.278,7.183,0.809c2.146,0.543,4.187,1.298,6.148,2.279c1.935,0.967,3.83,2.094,5.645,3.379
	c1.829,1.272,3.79,2.583,5.91,3.922c3.724-1.073,7.593-1.789,11.595-2.133c4.015-0.344,7.963-0.53,11.859-0.53
	c3.896,0,7.845,0.186,11.819,0.53c3.976,0.345,7.885,1.06,11.688,2.133c2.041-1.339,3.989-2.65,5.856-3.922
	c1.855-1.285,3.737-2.412,5.646-3.379c1.909-0.981,3.922-1.736,6.069-2.279c2.146-0.531,4.545-0.809,7.182-0.809h0.649
	c0.517,0.861,0.994,1.948,1.392,3.246c0.424,1.299,0.756,2.69,1.008,4.161c0.265,1.471,0.463,2.889,0.582,4.253
	c0.133,1.365,0.212,2.584,0.212,3.671c0,1.855-0.132,3.697-0.397,5.512c-0.266,1.829-0.688,3.578-1.298,5.274v0.119l-0.134,0.265
	c3.287,3.724,5.725,7.91,7.315,12.575C159.574,89.222,160.355,94.045,160.355,99.014z M120.868,93.555
	c-3.38,0-6.759,0.159-10.164,0.464c-3.405,0.304-6.798,0.45-10.163,0.45c-3.379,0-6.785-0.146-10.204-0.45
	c-3.419-0.305-6.811-0.464-10.203-0.464c-7.009,0-12.681,1.895-17.014,5.658s-6.493,9.329-6.493,16.695
	c0,6.281,1.392,11.132,4.188,14.551c2.796,3.418,6.361,5.937,10.72,7.539c4.359,1.591,9.09,2.531,14.218,2.783
	c5.141,0.266,10.07,0.397,14.788,0.397c3.206,0,6.492-0.04,9.898-0.132c3.404-0.08,6.719-0.359,9.978-0.809
	c3.246-0.465,6.334-1.193,9.249-2.214c2.929-1.006,5.473-2.478,7.633-4.386c2.174-1.895,3.896-4.319,5.194-7.248
	c1.299-2.915,1.961-6.493,1.961-10.747c0-3.63-0.582-6.823-1.763-9.58c-1.165-2.742-2.796-5.049-4.862-6.917
	c-2.094-1.855-4.558-3.259-7.448-4.187C127.507,94.031,124.339,93.555,120.868,93.555z M72.475,113.245
	c0-2.862,0.57-5.301,1.723-7.341c1.14-2.04,2.571-3.048,4.253-3.048c1.683,0,3.127,1.008,4.32,3.048
	c1.192,2.04,1.789,4.479,1.789,7.341s-0.596,5.287-1.789,7.302c-1.193,2.014-2.637,3.021-4.32,3.021
	c-1.683,0-3.114-1.008-4.253-3.021C73.045,118.532,72.475,116.107,72.475,113.245z M100.408,137.283
	c-1.855,0-3.551-0.623-5.062-1.855c-1.524-1.232-2.624-2.862-3.313-4.903c-0.265-0.688,0-1.231,0.769-1.629
	c0.689-0.252,1.219,0.025,1.563,0.848c1.167,3.3,3.181,4.916,6.043,4.876c1.339,0,2.57-0.45,3.67-1.338s1.868-2.067,2.307-3.538
	c0.345-0.862,0.914-1.153,1.682-0.848c0.689,0.265,0.981,0.808,0.849,1.629c-0.689,2.041-1.802,3.671-3.313,4.903
	C104.092,136.66,102.356,137.283,100.408,137.283z M104.238,123.316c0-0.529-0.385-0.981-1.127-1.365
	c-0.769-0.397-1.669-0.597-2.703-0.597c-1.086,0-2.014,0.199-2.756,0.597c-0.769,0.384-1.14,0.836-1.14,1.365
	c0,0.517,0.371,0.98,1.14,1.392c0.742,0.41,1.67,0.622,2.756,0.622s1.988-0.212,2.729-0.622
	C103.88,124.297,104.238,123.833,104.238,123.316z M128.341,113.245c0-2.862-0.583-5.301-1.749-7.341
	c-1.18-2.04-2.584-3.048-4.227-3.048c-1.684,0-3.141,1.008-4.359,3.048c-1.207,2.04-1.816,4.479-1.816,7.341
	s0.609,5.287,1.816,7.302c1.219,2.014,2.676,3.021,4.359,3.021s3.101-1.008,4.253-3.021
	C127.758,118.532,128.341,116.107,128.341,113.245z"/>
</svg>
