<?xml version="1.0" encoding="utf-8"?>
<!-- Generator: Adobe Illustrator 16.0.1, SVG Export Plug-In . SVG Version: 6.00 Build 0)  -->
<!DOCTYPE svg PUBLIC "-//W3C//DTD SVG 1.1//EN" "http://www.w3.org/Graphics/SVG/1.1/DTD/svg11.dtd">
<svg version="1.1" id="Layer_2" xmlns="http://www.w3.org/2000/svg" xmlns:xlink="http://www.w3.org/1999/xlink" x="0px" y="0px"
	 viewBox="0 0 200 200" enable-background="new 0 0 200 200" xml:space="preserve">
<path fill="#FFFFFF" d="M130.433,86.991V71.758l-9.101-1.895c-0.465-1.425-1.035-2.8-1.702-4.121l5.093-7.772L113.95,47.198
	l-7.729,5.066c-1.273-0.648-2.598-1.211-3.969-1.676l-1.894-9.101H85.125l-1.852,8.897c-1.48,0.465-2.914,1.043-4.285,1.723
	l-7.71-5.046L60.51,57.834l4.941,7.542c-0.75,1.445-1.39,2.96-1.902,4.531l-8.889,1.851v15.233l8.889,1.852
	c0.489,1.5,1.094,2.949,1.801,4.335l-4.98,7.601l10.772,10.772l7.644-5.012c1.434,0.727,2.933,1.336,4.488,1.824l1.852,8.897h15.233
	l1.894-9.101c1.441-0.488,2.832-1.086,4.164-1.777l7.671,5.027l10.772-10.769l-5.129-7.835c0.622-1.258,1.16-2.57,1.603-3.922
	L130.433,86.991z M92.44,98.182c-10.401,0-18.834-8.429-18.834-18.83s8.433-18.834,18.834-18.834s18.834,8.433,18.834,18.834
	S102.842,98.182,92.44,98.182z"/>
<path fill="#FFFFFF" d="M149.636,138.184v-9.444l-5.643-1.175c-0.288-0.883-0.642-1.736-1.056-2.554l3.158-4.819l-6.679-6.679
	l-4.793,3.141c-0.79-0.402-1.61-0.751-2.46-1.04l-1.175-5.642h-9.444l-1.147,5.517c-0.918,0.288-1.808,0.646-2.657,1.067
	l-4.78-3.129l-6.677,6.68l3.063,4.676c-0.465,0.896-0.861,1.836-1.18,2.81l-5.511,1.147v9.444l5.511,1.148
	c0.304,0.929,0.679,1.828,1.117,2.688l-3.087,4.713l6.678,6.679l4.739-3.107c0.889,0.451,1.819,0.829,2.783,1.131l1.147,5.517h9.444
	l1.175-5.643c0.894-0.302,1.755-0.673,2.581-1.102l4.757,3.117l6.679-6.677l-3.18-4.857c0.386-0.78,0.719-1.594,0.993-2.432
	L149.636,138.184z M126.081,145.122c-6.449,0-11.678-5.226-11.678-11.676c0-6.448,5.229-11.676,11.678-11.676
	c6.448,0,11.677,5.228,11.677,11.676C137.758,139.896,132.529,145.122,126.081,145.122z"/>
</svg>
