<?xml version="1.0" encoding="utf-8"?>
<!-- Generator: Adobe Illustrator 16.0.1, SVG Export Plug-In . SVG Version: 6.00 Build 0)  -->
<!DOCTYPE svg PUBLIC "-//W3C//DTD SVG 1.1//EN" "http://www.w3.org/Graphics/SVG/1.1/DTD/svg11.dtd">
<svg version="1.1" id="Layer_1" xmlns="http://www.w3.org/2000/svg" xmlns:xlink="http://www.w3.org/1999/xlink" x="0px" y="0px"
	 viewBox="0 0 200 200" enable-background="new 0 0 200 200" xml:space="preserve">
<path fill="#FFFFFF" d="M163,57.924c-4.636,2.056-9.618,3.446-14.847,4.07c5.336-3.199,9.436-8.265,11.365-14.302
	c-4.995,2.963-10.526,5.114-16.415,6.273c-4.716-5.024-11.434-8.163-18.869-8.163c-14.275,0-25.85,11.574-25.85,25.85
	c0,2.026,0.229,3.999,0.669,5.891c-21.484-1.078-40.532-11.37-53.282-27.009c-2.225,3.818-3.5,8.258-3.5,12.996
	c0,8.969,4.563,16.881,11.5,21.517c-4.237-0.134-8.224-1.297-11.708-3.233c-0.002,0.108-0.002,0.216-0.002,0.325
	c0,12.525,8.911,22.972,20.736,25.348c-2.169,0.59-4.453,0.906-6.81,0.906c-1.666,0-3.285-0.162-4.864-0.464
	c3.29,10.27,12.836,17.744,24.148,17.952c-8.847,6.934-19.994,11.066-32.105,11.066c-2.086,0-4.144-0.123-6.167-0.362
	C48.44,143.92,62.028,148.2,76.626,148.2c47.548,0,73.549-39.391,73.549-73.55c0-1.121-0.025-2.236-0.075-3.345
	C155.152,67.661,159.534,63.108,163,57.924z"/>
</svg>
